# xmcd
#
# Track frame offsets:
#	150
#	15675
#	27605
#	45755
#	64538
#	79050
#	100838
#	117038
#	135613
#	157463
#	171923
#	185555
#
# Disc length: 2719 seconds
#
# Revision: 1
# Processed by: cddbd v1.4b42PL1 Copyright (c) Steve Scherf et al.
# Submitted via: audiograbber 1.80
#
DISCID=9a0a9d0c
DTITLE=Norsk Utflukt - Med Lyset På
DYEAR=1900
DGENRE=
TTITLE0=Mor, Mor, Du Må Hente Vann
TTITLE1=Jeg Vender Tilbake
TTITLE2=Soire
TTITLE3=Skralle Tider
TTITLE4=Gamle Tomter
TTITLE5=Blues For En Av De Dagene
TTITLE6=Nord Og Ned
TTITLE7=Det Går Over (Blått Spann)
TTITLE8=Pere Lanchais
TTITLE9=Balkong I Byen
TTITLE10=Graver Blues
TTITLE11=Gutta
EXTD=
EXTT0=
EXTT1=
EXTT2=
EXTT3=
EXTT4=
EXTT5=
EXTT6=
EXTT7=
EXTT8=
EXTT9=
EXTT10=
EXTT11=
PLAYORDER=
